<?xml version="1.0" encoding="UTF-8" standalone="no"?>
<!-- Created with Inkscape (http://www.inkscape.org/) -->

<svg
   width="210mm"
   height="297mm"
   viewBox="0 0 210 297"
   version="1.1"
   id="svg1"
   xml:space="preserve"
   inkscape:version="1.4 (86a8ad7, 2024-10-11)"
   sodipodi:docname="esp32_robotic_arm.svg"
   xmlns:inkscape="http://www.inkscape.org/namespaces/inkscape"
   xmlns:sodipodi="http://sodipodi.sourceforge.net/DTD/sodipodi-0.dtd"
   xmlns="http://www.w3.org/2000/svg"
   xmlns:svg="http://www.w3.org/2000/svg"><sodipodi:namedview
     id="namedview1"
     pagecolor="#ffffff"
     bordercolor="#000000"
     borderopacity="0.25"
     inkscape:showpageshadow="2"
     inkscape:pageopacity="0.0"
     inkscape:pagecheckerboard="0"
     inkscape:deskcolor="#d1d1d1"
     inkscape:document-units="mm"
     inkscape:zoom="2.1543544"
     inkscape:cx="-34.813214"
     inkscape:cy="179.17201"
     inkscape:window-width="2880"
     inkscape:window-height="1760"
     inkscape:window-x="-12"
     inkscape:window-y="1878"
     inkscape:window-maximized="1"
     inkscape:current-layer="g8" /><defs
     id="defs1" /><g
     inkscape:label="Vrstva 1"
     inkscape:groupmode="layer"
     id="layer1"><g
       id="g8"
       transform="matrix(0.49373284,0,0,0.49373284,-27.327638,-12.529007)"
       inkscape:export-filename="esp32_robotic_arm.png"
       inkscape:export-xdpi="24.190475"
       inkscape:export-ydpi="24.190475"><path
         style="fill:#000000"
         d="m 57.175436,130.88846 c 0,-4.25857 0.0357,-4.57717 0.648451,-5.78636 0.741515,-1.46331 1.79709,-2.44111 3.401399,-3.15077 l 1.115878,-0.49361 0.579544,-2.887 c 0.318749,-1.58785 1.666742,-8.22456 2.995541,-14.74823 l 2.415996,-11.861237 -0.5386,-1.367935 c -0.955536,-2.426864 -1.181131,-3.692701 -1.186861,-6.659601 -0.0097,-5.000149 1.59531,-9.153533 4.907772,-12.700484 2.659815,-2.848104 5.783462,-4.639239 10.161641,-5.826801 0.160261,-0.04347 3.16659,-4.226577 6.680729,-9.295792 l 6.389344,-9.216754 v -2.664875 c 0,-4.4217 1.246287,-7.459379 4.190293,-10.213352 2.986607,-2.793826 6.702607,-4.143723 10.535757,-3.827288 5.65805,0.467084 10.49192,4.445824 12.10752,9.965653 0.4703,1.606818 -0.40558,0.936194 8.42331,6.44935 1.41946,0.886376 3.65286,2.296201 4.96311,3.132946 2.11062,1.347874 2.54041,1.522339 3.76916,1.529992 0.76279,0.0048 2.04174,0.235286 2.8421,0.512301 l 1.45521,0.503663 5.29167,-0.919304 c 2.91041,-0.505617 5.82744,-1.027242 6.48229,-1.159167 1.3744,-0.276886 0.61716,-0.879778 7.99353,6.364147 l 4.15707,4.082431 -1.17917,1.984375 c -0.64855,1.091406 -5.85054,5.145218 -6.62016,4.7373 -0.1418,-0.07516 2.47564,-4.283014 -0.45731,-5.977658 -2.93295,-1.694643 -5.45958,-3.08117 -5.61473,-3.08117 -0.15515,0 -1.53526,0.840789 -3.06692,1.868419 -2.43624,1.634536 -2.82375,1.998315 -3.09573,2.906112 -0.171,0.570732 -0.73247,1.578789 -1.24771,2.240129 -0.93467,1.199685 -0.93719,1.210261 -1.10047,4.623995 l -0.16367,3.421559 5.68705,3.276084 5.3186,-2.741766 -0.68074,7.889611 c -0.10145,1.175797 -1.14606,1.976458 -1.26447,2.104423 -0.1214,0.131198 -3.37431,-0.665421 -7.45904,-1.826679 l -7.24376,-2.059341 -2.23379,-6.110822 c -2.16118,-5.912183 -2.27958,-6.15757 -3.64253,-7.548986 -0.7748,-0.790991 -1.62682,-1.862553 -1.89337,-2.38125 -0.42836,-0.833576 -0.74098,-1.02984 -2.6923,-1.690211 -1.21422,-0.41092 -5.05145,-1.750373 -8.52718,-2.976563 -3.47572,-1.22619 -6.40681,-2.229436 -6.51353,-2.229436 -0.16895,0 -1.65535,3.063097 -5.77765,11.90625 -0.5766,1.236927 -1.77757,3.789887 -2.66881,5.673244 l -1.62043,3.424286 0.43916,1.973951 c 0.65345,2.937147 0.41131,6.896008 -0.60153,9.834447 l -0.77464,2.247388 0.72384,3.570738 c 0.39811,1.963906 1.74304,8.571368 2.98874,14.683238 1.24569,6.11188 2.26492,11.12609 2.26494,11.1427 2e-5,0.0166 0.52167,0.22941 1.15922,0.4729 0.63755,0.24348 1.65296,0.94141 2.25646,1.55095 1.56958,1.58526 1.87603,2.8567 1.87603,7.78356 v 4.05302 H 85.353562 57.175436 Z m 54.369854,-4.17417 c -0.2169,-1.1858 -1.80154,-2.8856 -3.00059,-3.21864 -0.61886,-0.1719 -9.049913,-0.2668 -23.455722,-0.26402 -21.2578,0.004 -22.54755,0.031 -23.547917,0.49032 -2.200066,1.01028 -2.750195,2.34478 -2.766512,6.71101 l -0.01161,3.10758 26.392188,0.0674 26.392183,0.0674 0.0791,-3.0427 c 0.0435,-1.67349 0.007,-3.43677 -0.0811,-3.91839 z m -5.15735,-5.43098 c 0,-0.28375 -2.21317,-11.28604 -4.58583,-22.79751 -0.20996,-1.018646 -0.46006,-2.298567 -0.55578,-2.844271 -0.0957,-0.545703 -0.26558,-0.992187 -0.37746,-0.992187 -0.11188,0 -0.6125,0.54996 -1.112488,1.222134 -1.160812,1.560569 -4.065592,3.844456 -6.159656,4.843034 -5.375792,2.56351 -11.800516,2.5233 -16.789334,-0.10507 -2.441756,-1.286453 -4.136645,-2.624674 -5.786341,-4.568684 -1.264255,-1.489804 -1.415106,-1.593306 -1.5425,-1.058334 -0.07766,0.326129 -1.038747,4.998274 -2.135746,10.382548 -1.096998,5.38427 -2.285615,11.20494 -2.641372,12.93482 -0.355757,1.72988 -0.64683,3.1884 -0.64683,3.24115 0,0.0527 9.525,0.0959 21.166667,0.0959 17.48514,0 21.16667,-0.0615 21.16667,-0.35353 z M 88.793145,100.60264 c 4.612213,-0.965025 9.255501,-4.422388 11.422765,-8.505324 3.28686,-6.192144 2.70926,-13.107155 -1.565899,-18.746933 -5.824106,-7.683143 -17.508687,-8.657194 -24.791456,-2.066667 -3.952966,3.577228 -5.780118,8.068941 -5.49797,13.515735 0.234592,4.528744 1.813641,8.094432 4.962811,11.206639 2.453577,2.424778 6.010278,4.27447 9.252041,4.81159 1.510486,0.25027 4.485565,0.14738 6.217708,-0.21504 z M 83.475578,97.565679 C 79.580663,96.979771 76.01969,94.76862 73.818394,91.569146 70.264816,86.404197 70.953707,78.860098 75.382321,74.44247 c 3.605931,-3.596986 7.848923,-4.956907 12.518587,-4.012332 5.075332,1.026633 8.997939,4.573654 10.524802,9.517061 0.652549,2.112708 0.734567,5.401061 0.18609,7.460922 -1.751933,6.579562 -8.558198,11.147084 -15.136222,10.157558 z m 4.938816,-2.019803 c 3.505755,-1.040155 6.137664,-3.198665 7.652761,-6.276263 4.650835,-9.447181 -4.281817,-19.958237 -14.323744,-16.854763 -3.260331,1.00761 -5.740364,3.154351 -7.312548,6.329811 -0.87365,1.764578 -0.977874,2.206085 -1.071592,4.53939 -0.116862,2.909517 0.406452,5.020173 1.775411,7.160681 0.944484,1.476797 3.076444,3.462889 4.492936,4.185529 2.591552,1.322111 6.162548,1.694222 8.786776,0.915615 z M 153.47454,80.626425 c -0.004,-0.07276 -2.41405,-1.502965 -5.35649,-3.178232 l -5.3499,-3.04594 0.0871,-3.274253 0.0871,-3.274253 -0.61627,0.186601 c -1.90552,0.576973 -2.8892,0.713622 -4.2772,0.594169 -1.86071,-0.160134 -1.89891,-0.6586 0.42726,5.57413 l 1.64617,4.410719 6.08542,1.752586 6.08542,1.752586 0.59399,-0.682911 c 0.3267,-0.375601 0.59103,-0.742442 0.5874,-0.815202 z m -46.77558,-13.99928 c 2.1525,-4.570906 3.97549,-8.505635 4.0511,-8.743843 0.12004,-0.378222 -0.0823,-0.419109 -1.59699,-0.322662 -5.33207,0.33952 -10.619105,-2.72931 -13.070172,-7.586512 l -0.580952,-1.151255 -1.118313,1.54813 c -0.615073,0.851471 -2.173234,3.095942 -3.462582,4.987713 -1.289348,1.891771 -3.291195,4.785538 -4.448549,6.430594 -1.157354,1.645056 -2.03595,3.059342 -1.952434,3.142857 0.08352,0.08352 0.960061,0.205137 1.947879,0.27027 3.884822,0.256148 7.790451,1.802755 10.724367,4.246788 1.621969,1.351145 3.715956,3.844659 4.557206,5.426716 0.4516,0.849268 0.55524,0.918616 0.77839,0.52083 0.14158,-0.252388 2.01856,-4.19872 4.17105,-8.769626 z m 34.79057,-0.157388 c 1.47664,-0.61698 2.61018,-1.646911 3.41871,-3.106249 0.66113,-1.193267 0.76938,-1.671321 0.76415,-3.374583 -0.007,-2.390003 -0.57635,-3.653085 -2.34836,-5.212873 -1.3786,-1.213493 -2.67118,-1.666294 -4.75665,-1.666294 -5.14961,0 -8.35117,5.6826 -5.82084,10.331658 1.68665,3.098935 5.45233,4.403266 8.74299,3.028341 z m 22.9536,-4.853011 0.38961,-0.753428 -3.36466,-3.281468 c -1.85057,-1.804807 -3.9576,-3.837483 -4.6823,-4.517059 l -1.31763,-1.235591 -5.132,0.899535 c -2.8226,0.494745 -5.18604,0.953573 -5.25209,1.019618 -0.066,0.06604 0.24434,0.574458 0.68974,1.129806 0.85127,1.06141 1.62455,2.922234 1.62455,3.909309 0,0.321252 0.0725,0.656582 0.16109,0.745177 0.0886,0.08859 1.30807,-0.605936 2.70996,-1.543403 1.40188,-0.937466 2.66884,-1.701216 2.81548,-1.697222 0.14663,0.004 2.58832,1.368646 5.42597,3.03256 2.83766,1.663913 5.24562,3.029864 5.35102,3.035446 0.10541,0.0056 0.36697,-0.328894 0.58126,-0.74328 z m -34.22791,-2.090842 c 0.0256,-2.634436 1.57112,-5.335224 3.90053,-6.816171 1.03671,-0.659102 1.09516,-0.751879 0.66146,-1.050098 -1.23595,-0.849863 -11.96179,-7.55336 -12.28234,-7.676287 -0.27399,-0.105068 -0.38219,0.187188 -0.43676,1.179605 -0.18294,3.327577 -2.45158,7.451028 -5.17279,9.402013 -0.81189,0.582084 -1.48187,1.134217 -1.48885,1.226963 -0.007,0.09275 1.62441,0.740858 3.62532,1.440247 2.00091,0.699388 5.18583,1.836381 7.07761,2.526649 1.89177,0.690269 3.58841,1.262549 3.77031,1.271734 0.22656,0.01144 0.33538,-0.462455 0.34551,-1.504655 z M 111.2414,55.501578 c 2.44316,-0.624856 3.91791,-1.451972 5.678,-3.184514 5.78727,-5.696706 4.07978,-15.58388 -3.32316,-19.242611 -1.80187,-0.890533 -2.2334,-0.99309 -4.57426,-1.087111 -2.12854,-0.08549 -2.88596,-0.0036 -4.29174,0.464252 -2.22942,0.741904 -3.74671,1.726686 -5.266492,3.418162 -5.339886,5.943159 -3.555302,15.184208 3.614542,18.717072 3.03372,1.49483 5.02329,1.71778 8.16311,0.91475 z m -5.74658,-3.449571 c -1.92764,-0.752875 -3.2312,-1.764083 -4.2223,-3.275347 -1.20571,-1.838514 -1.499203,-2.823961 -1.498958,-5.032947 2.67e-4,-2.403919 0.951498,-4.543139 2.757698,-6.201803 1.87548,-1.722286 3.30702,-2.282875 5.84105,-2.28736 1.74432,-0.0031 2.37266,0.118524 3.57188,0.691304 5.86804,2.802752 6.92214,10.718656 1.94727,14.623263 -2.4885,1.953135 -5.72788,2.525227 -8.39664,1.48289 z m 6.12084,-2.020405 c 1.53103,-0.734101 2.39897,-1.708208 3.26357,-3.662763 1.04741,-2.367859 0.37126,-5.462011 -1.63884,-7.499529 -1.47475,-1.494867 -2.22326,-1.764721 -4.89797,-1.765838 -2.31275,-9.65e-4 -2.4655,0.03608 -3.74289,0.907769 -3.79978,2.592952 -4.30301,7.655536 -1.07709,10.835788 2.22831,2.196766 5.10428,2.61771 8.09322,1.184573 z"
         id="path1"
         sodipodi:nodetypes="ssscsscscssscsssssscscssscsssssssscccssscsssssssscsscsssssscccscsccscccsccssssssssssssssssssssssssssssssssssssscscccssscccscsssscssssssssssscssssscsscscsssssssssssscsssssssssscssssssssssssssssss" /><ellipse
         style="fill:#000000;fill-opacity:1;fill-rule:evenodd;stroke-width:0.968999"
         id="path4"
         cx="108.19849"
         cy="43.598717"
         rx="7.9828629"
         ry="7.8600497" /><ellipse
         style="fill:#000000;fill-opacity:1;fill-rule:evenodd;stroke-width:1.54737"
         id="path4-4"
         cx="85.411812"
         cy="83.653694"
         rx="12.526955"
         ry="12.772581" /><ellipse
         style="fill:#000000;fill-opacity:1;fill-rule:evenodd;stroke-width:0.968999"
         id="path5"
         cx="88.486969"
         cy="83.267403"
         rx="0.30703321"
         ry="0.12281328" /><text
         xml:space="preserve"
         style="font-size:98.7777px;font-family:Rockwell;-inkscape-font-specification:'Rockwell, Normal';text-align:start;writing-mode:lr-tb;direction:ltr;text-anchor:start;fill:#000000;fill-opacity:1;fill-rule:evenodd;stroke-width:0;stroke-dasharray:none"
         x="72.05175"
         y="131.7395"
         id="text6-7"><tspan
           sodipodi:role="line"
           id="tspan6-1"
           style="font-style:normal;font-variant:normal;font-weight:bold;font-stretch:normal;font-size:9.87778px;font-family:'Vafle VUT';-inkscape-font-specification:'Vafle VUT, Bold';font-variant-ligatures:normal;font-variant-caps:normal;font-variant-numeric:normal;font-variant-east-asian:normal;stroke-width:0;stroke-dasharray:none"
           x="72.05175"
           y="131.7395">ESP32</tspan></text><text
         xml:space="preserve"
         style="font-size:71.392px;font-family:Rockwell;-inkscape-font-specification:'Rockwell, Normal';text-align:start;writing-mode:lr-tb;direction:ltr;text-anchor:start;fill:#000000;fill-opacity:1;fill-rule:evenodd;stroke-width:0;stroke-dasharray:none"
         x="66.044876"
         y="119.44755"
         id="text6-7-7"
         transform="scale(1.0052084,0.9948186)"><tspan
           sodipodi:role="line"
           style="font-style:normal;font-variant:normal;font-weight:bold;font-stretch:normal;font-size:7.1392px;font-family:'Vafle VUT';-inkscape-font-specification:'Vafle VUT, Bold';font-variant-ligatures:normal;font-variant-caps:normal;font-variant-numeric:normal;font-variant-east-asian:normal;stroke-width:0;stroke-dasharray:none"
           x="66.044876"
           y="119.44755"
           id="tspan7">RoboControl</tspan></text><text
         xml:space="preserve"
         style="font-size:78.5345px;font-family:Rockwell;-inkscape-font-specification:'Rockwell, Normal';text-align:start;writing-mode:lr-tb;direction:ltr;text-anchor:start;fill:#000000;fill-opacity:1;fill-rule:evenodd;stroke-width:0;stroke-dasharray:none"
         x="81.989975"
         y="114.82293"
         id="text6-7-7-3"
         transform="scale(0.96270371,1.0387412)"><tspan
           sodipodi:role="line"
           style="font-style:normal;font-variant:normal;font-weight:bold;font-stretch:normal;font-size:7.85345px;font-family:'Vafle VUT';-inkscape-font-specification:'Vafle VUT, Bold';font-variant-ligatures:normal;font-variant-caps:normal;font-variant-numeric:normal;font-variant-east-asian:normal;stroke-width:0;stroke-dasharray:none"
           x="81.989975"
           y="114.82293"
           id="tspan7-2" /></text><text
         xml:space="preserve"
         style="font-weight:bold;font-size:20.0063px;font-family:'Vafle VUT';-inkscape-font-specification:'Vafle VUT, Bold';text-align:start;writing-mode:lr-tb;direction:ltr;text-anchor:start;fill:#2d2e2e;fill-opacity:0.996078;fill-rule:evenodd;stroke-width:0;paint-order:stroke markers fill"
         x="180.71622"
         y="127.36129"
         id="text1"><tspan
           sodipodi:role="line"
           id="tspan1"
           x="180.71622"
           y="127.36129"
           style="stroke-width:0"></tspan></text></g></g></svg>
